# Blender 4.0.2
# www.blender.org
mtllib sunscreen.mtl
o sunscreen_Lotion_v2
v 2.500000 -2.000000 0.000000
v 2.500000 2.000000 -0.000000
v 2.500000 2.000000 7.250000
v 2.500000 2.000002 14.500000
v 2.500000 -1.999998 14.500000
v 2.500000 -1.999998 7.250000
v -2.500000 -2.000000 0.000000
v -2.500000 -1.999998 14.500000
v -2.500000 -1.999998 7.250000
v -2.500000 2.000000 -0.000000
v -2.500000 2.000002 14.500000
v -2.500000 2.000000 7.250000
vn 1.0000 -0.0000 -0.0000
vn -0.0000 -1.0000 -0.0000
vn -1.0000 -0.0000 -0.0000
vn -0.0000 1.0000 -0.0000
vn -0.0000 -0.0000 1.0000
vn -0.0000 -0.0000 -1.0000
vt 0.331182 1.001423
vt 0.185126 1.001423
vt 0.331182 0.864962
vt 0.185126 0.864962
vt 0.331182 0.728501
vt 0.185126 0.728501
vt 0.508502 0.565851
vt 0.787781 0.562870
vt 0.507255 0.771877
vt 0.786534 0.768895
vt 0.506008 0.977903
vt 0.785286 0.974921
vt 0.493581 0.993263
vt 0.345395 0.993263
vt 0.493581 0.829202
vt 0.345395 0.829202
vt 0.493581 0.665141
vt 0.345395 0.665141
vt 0.778001 0.974925
vt 0.510420 0.974925
vt 0.778001 0.768743
vt 0.510420 0.768743
vt 0.778001 0.562560
vt 0.510420 0.562560
vt 0.001206 0.884656
vt 0.180730 0.884854
vt 0.001136 0.999844
vt 0.180660 1.000042
vt 0.180356 1.001432
vt 0.000458 1.000277
vt 0.180761 0.884740
vt 0.000863 0.883585
s 0
usemtl Material.001
f 1/1/1 2/2/1 6/3/1
f 6/3/1 2/2/1 3/4/1
f 6/3/1 3/4/1 5/5/1
f 5/5/1 3/4/1 4/6/1
f 7/7/2 1/8/2 9/9/2
f 9/9/2 1/8/2 6/10/2
f 9/9/2 6/10/2 8/11/2
f 8/11/2 6/10/2 5/12/2
f 10/13/3 7/14/3 12/15/3
f 12/15/3 7/14/3 9/16/3
f 12/15/3 9/16/3 11/17/3
f 11/17/3 9/16/3 8/18/3
f 2/19/4 10/20/4 3/21/4
f 3/21/4 10/20/4 12/22/4
f 3/21/4 12/22/4 4/23/4
f 4/23/4 12/22/4 11/24/4
f 4/25/5 11/26/5 5/27/5
f 5/27/5 11/26/5 8/28/5
f 10/29/6 2/30/6 7/31/6
f 7/31/6 2/30/6 1/32/6
